<?xml version="1.0" encoding="iso-8859-1"?>
<!-- Generator: Adobe Illustrator 19.0.0, SVG Export Plug-In . SVG Version: 6.00 Build 0)  -->
<svg version="1.1" id="Capa_1" xmlns="http://www.w3.org/2000/svg" xmlns:xlink="http://www.w3.org/1999/xlink" x="0px" y="0px"
	 viewBox="0 0 488.925 488.925" style="enable-background:new 0 0 488.925 488.925;" xml:space="preserve">
<g>
	<g>
		<path d="M259.063,6.225c-7.3-8.3-21.8-8.3-29.1,0c-6.3,7.2-165.5,174.7-165.5,281.9c0,110.3,80.1,200.8,180,200.8
			s180-90.5,180-200.8C424.462,180.925,265.262,13.425,259.063,6.225z M244.462,447.325c-77,0-139.4-71.8-139.4-160.2
			c0-67.6,90.5-182.1,139.4-237.2c48.9,55.1,139.4,170.6,139.4,237.2C383.862,375.525,321.462,447.325,244.462,447.325z"/>
		<path d="M354.762,282.925c0-11.4-9.4-19.8-20.8-19.8s-19.8,9.4-19.8,20.8c0,0,1,51-36.4,72.8c-9.4,6.2-12.5,18.7-7.3,28.1
			c6.6,9,15.1,13.3,27,8.3C356.862,359.925,354.762,286.025,354.762,282.925z"/>
	</g>
</g>
<g>
</g>
<g>
</g>
<g>
</g>
<g>
</g>
<g>
</g>
<g>
</g>
<g>
</g>
<g>
</g>
<g>
</g>
<g>
</g>
<g>
</g>
<g>
</g>
<g>
</g>
<g>
</g>
<g>
</g>
</svg>
